<svg version="1.1" id="Layer_1" xmlns="http://www.w3.org/2000/svg" xmlns:xlink="http://www.w3.org/1999/xlink" x="0px" y="0px"
	 width="100%" viewBox="0 0 496 496" enable-background="new 0 0 496 496" xml:space="preserve">
<path fill="#000000" opacity="1.000000" stroke="none" 
	d="
M1.000000,261.468658 
	C3.133381,265.370178 2.313776,270.182129 2.776458,274.748901 
	C5.338021,300.032166 12.640318,323.983429 22.959904,347.009460 
	C31.769228,366.665619 43.309044,384.588776 57.276741,401.197021 
	C72.883339,419.754059 90.997849,435.270630 110.825150,448.752747 
	C124.268486,457.893890 138.883728,465.193542 154.225540,471.033234 
	C173.133209,478.230225 192.442276,483.604431 212.512238,485.955566 
	C228.886307,487.873779 245.294189,488.585297 261.825714,487.178558 
	C276.290894,485.947662 290.592010,484.001648 304.699127,480.687866 
	C320.772125,476.912323 336.171722,471.185852 351.079163,464.105743 
	C371.917053,454.209045 390.941986,441.505859 408.550385,426.683472 
	C426.252686,411.782074 440.609161,394.080414 453.261627,374.682312 
	C468.413361,351.452576 477.925659,326.132965 483.995483,299.370605 
	C488.887085,277.803070 489.821594,255.932358 487.937500,233.877258 
	C484.600464,194.813766 472.461060,158.693756 451.478271,125.697006 
	C433.684692,97.715538 411.131073,74.162651 383.609955,55.402512 
	C351.552704,33.550293 316.379700,19.717693 278.127167,13.746137 
	C250.399536,9.417612 222.665878,10.210226 195.162720,15.537856 
	C170.540695,20.307383 146.873917,28.194908 124.962189,40.559078 
	C111.473045,48.170624 99.034233,57.374779 87.229034,67.484344 
	C73.360771,79.360626 61.255215,92.782524 50.487514,107.441956 
	C39.635193,122.216599 30.231901,137.835678 22.730036,154.636414 
	C15.715289,170.346237 10.020799,186.454269 6.847849,203.340393 
	C4.609459,215.252899 3.194262,227.320099 1.205769,239.659119 
	C1.000000,218.979111 1.000000,197.958206 1.277168,176.261047 
	C2.110978,174.391754 2.796544,173.241135 3.205102,171.999390 
	C10.477898,149.894867 20.928476,129.426178 33.996849,110.161987 
	C50.785938,85.413040 71.098648,64.112770 95.148888,46.445320 
	C125.414764,24.211809 159.649399,11.027891 196.092667,3.035485 
	C199.062729,2.384117 202.548706,3.888910 205.000000,1.000000 
	C229.020889,1.000000 253.041794,1.000000 277.861206,1.174184 
	C279.929993,1.743603 281.174408,2.293164 282.474426,2.511136 
	C305.219696,6.324824 327.171204,12.882270 348.204987,22.265776 
	C376.247437,34.775932 401.555450,51.479607 423.572327,72.997650 
	C440.086975,89.138092 454.282043,107.138237 465.979767,127.031609 
	C477.237549,146.176712 485.854126,166.452255 491.609436,187.976288 
	C493.222412,194.008682 493.967987,200.369446 497.000000,206.000000 
	C497.000000,237.020889 497.000000,268.041779 496.714172,299.750519 
	C492.723145,310.895325 490.794342,321.864777 486.757111,332.261017 
	C480.726440,347.790680 474.369171,363.118835 465.521881,377.292938 
	C445.224548,409.811127 419.439850,436.905701 386.950256,457.555176 
	C360.584259,474.312683 332.522034,486.837555 301.978027,493.745758 
	C297.646973,494.725342 292.944672,494.437592 289.000000,497.000000 
	C261.645782,497.000000 234.291550,497.000000 206.135895,496.813202 
	C201.376266,495.071167 197.111130,495.557861 193.035309,494.775757 
	C156.534943,487.771790 123.295029,473.338715 93.103661,451.614258 
	C55.387527,424.475250 27.909332,389.385956 9.731472,346.715424 
	C6.540010,339.223846 4.632154,331.288300 1.000000,324.000000 
	C1.000000,303.312439 1.000000,282.624878 1.000000,261.468658 
z"/>
<path fill="#000000" opacity="1.000000" stroke="none" 
	d="
M309.468262,497.000000 
	C312.126282,495.723297 315.424774,495.104675 318.287018,492.904327 
	C322.893890,489.362732 324.767975,494.440369 327.771027,496.758667 
	C321.978851,497.000000 315.957703,497.000000 309.468262,497.000000 
z"/>
<path fill="#000000" opacity="1.000000" stroke="none" 
	d="
M272.848999,181.588074 
	C274.256378,187.294540 275.523804,192.631012 276.931305,197.930313 
	C277.952271,201.774429 277.382416,203.933807 272.744873,204.831024 
	C258.707581,207.546768 244.750626,210.693634 230.809021,213.876862 
	C227.500595,214.632263 225.692474,213.852814 224.962311,210.561462 
	C222.549103,199.683487 219.077179,188.919647 217.907532,177.910568 
	C215.094604,151.434433 224.892120,130.118103 246.690033,114.533867 
	C257.738678,106.634720 270.328003,102.580330 283.412262,99.682114 
	C317.323669,92.170593 351.366241,85.243469 385.093506,76.907875 
	C386.186188,76.637810 387.359619,76.694237 388.385590,76.607719 
	C390.006866,78.509567 389.179382,80.221008 388.579132,81.935318 
	C383.036285,97.765831 377.456696,113.583649 371.980042,129.437042 
	C370.399139,134.013321 368.420746,136.851746 362.735962,137.980453 
	C338.775696,142.737778 314.988800,148.369919 291.145233,153.712051 
	C285.927521,154.881073 280.611664,156.224152 276.434631,159.608414 
	C269.077271,165.569366 270.637787,173.424454 272.848999,181.588074 
z"/>
<path fill="#000000" opacity="1.000000" stroke="none" 
	d="
M133.988312,164.520538 
	C134.431168,186.841721 146.747681,203.500153 167.484573,211.463150 
	C184.268417,217.908112 201.209854,223.878632 218.202209,229.722275 
	C221.142136,230.733322 222.768845,232.360748 223.546753,235.548767 
	C228.043777,253.978516 233.810516,272.082031 237.777771,290.652924 
	C238.193634,292.599640 238.663956,294.562225 239.905930,296.214569 
	C240.929840,297.576752 241.158554,298.957764 239.764496,300.208466 
	C238.563477,301.285980 237.326584,300.952698 236.112915,300.144684 
	C210.456253,283.063751 180.592926,276.276917 152.019394,266.675110 
	C118.772881,255.502975 99.447029,229.816498 99.273079,198.545197 
	C99.119087,170.863174 112.473724,149.995560 136.558640,136.186951 
	C138.077637,135.316086 139.603729,134.049088 142.641876,135.184036 
	C137.041138,144.084991 134.082306,153.729233 133.988312,164.520538 
z"/>
<path fill="#000000" opacity="1.000000" stroke="none" 
	d="
M170.278046,400.401306 
	C150.446533,405.266693 131.226517,410.917114 111.111710,415.200348 
	C111.232162,408.546692 114.503334,403.734314 116.362434,398.545258 
	C121.409653,384.457642 127.023773,370.571564 131.971069,356.450745 
	C133.278000,352.720428 135.262756,351.048462 138.845184,350.347351 
	C163.486801,345.524750 187.713959,338.938416 212.075073,332.934296 
	C226.705032,329.328552 231.502289,321.246887 228.593796,306.397308 
	C228.401810,305.417145 228.082016,304.441498 229.052185,303.280609 
	C232.385132,303.286072 234.640762,305.874115 236.580643,307.959381 
	C250.840134,323.287506 255.909515,351.959747 246.154480,369.391388 
	C241.053253,378.506927 233.990738,384.933807 223.479263,387.395538 
	C205.839066,391.526794 188.277695,395.994537 170.278046,400.401306 
z"/>
<path fill="#000000" opacity="1.000000" stroke="none" 
	d="
M358.282043,192.060684 
	C360.185059,193.774734 358.975983,195.305725 358.453247,196.789413 
	C352.485504,213.727173 346.472961,230.649155 340.502319,247.585892 
	C339.694244,249.878052 338.777924,251.745483 335.930481,252.183624 
	C320.137238,254.613846 304.749451,258.902222 289.265411,262.715820 
	C285.706024,263.592468 283.698761,263.097626 281.267090,260.095581 
	C269.074585,245.043121 253.027512,235.577713 234.932861,229.290268 
	C233.676636,228.853745 232.416229,228.426498 231.174942,227.950195 
	C229.016159,227.121811 228.208450,225.340637 228.151947,223.218369 
	C228.083755,220.657227 230.273087,220.468735 231.969513,220.094879 
	C243.813797,217.484695 255.702820,215.074448 267.530518,212.392761 
	C295.885010,205.963913 324.212646,199.416641 352.555054,192.934250 
	C354.329529,192.528381 356.137695,192.269775 358.282043,192.060684 
z"/>
<path fill="#000000" opacity="1.000000" stroke="none" 
	d="
M242.150452,281.658478 
	C238.253754,266.154510 234.483627,251.046005 230.617218,235.551636 
	C235.149048,234.822495 238.387024,237.322632 241.711807,238.621658 
	C260.668884,246.028442 275.864166,258.380829 285.118805,276.522278 
	C300.702301,307.069916 298.449402,336.691742 271.084015,363.258667 
	C266.056610,368.139374 260.455627,372.336975 254.203827,375.577240 
	C252.646271,376.384521 251.129868,377.637726 248.829056,376.728180 
	C248.825638,373.903870 250.940628,372.001984 252.099152,369.765198 
	C258.186218,358.012695 258.161621,345.752289 255.139740,333.318878 
	C250.979019,316.199738 246.576157,299.139435 242.150452,281.658478 
z"/>
<path fill="#000000" opacity="1.000000" stroke="none" 
	d="
M213.179184,154.112946 
	C211.966034,158.707626 211.173874,162.940399 211.187698,167.306610 
	C211.199356,170.991684 209.651657,172.786682 205.631287,173.399231 
	C196.436844,174.800079 187.286942,176.625458 178.226334,178.738831 
	C167.070740,181.340866 162.855743,187.320114 163.475082,198.751846 
	C163.538681,199.925766 163.981201,201.189362 162.630478,201.817780 
	C161.007202,202.572998 159.779831,201.434525 158.571976,200.598206 
	C143.415680,190.103668 136.377350,170.011871 141.306671,151.927689 
	C143.941437,142.261490 148.542465,134.140961 157.367416,128.781082 
	C162.399307,125.724945 168.166504,125.519112 173.629303,124.258842 
	C193.553879,119.662170 213.539703,115.328903 233.526779,111.008850 
	C235.473526,110.588066 237.553543,109.516502 240.472107,110.959595 
	C227.076920,122.797058 217.340179,136.512009 213.179184,154.112946 
z"/>
</svg>