<?xml version="1.0" standalone="no"?>
<!DOCTYPE svg PUBLIC "-//W3C//DTD SVG 20010904//EN"
 "http://www.w3.org/TR/2001/REC-SVG-20010904/DTD/svg10.dtd">
<svg version="1.0" xmlns="http://www.w3.org/2000/svg"
 width="500.000000pt" height="500.000000pt" viewBox="0 0 500.000000 500.000000"
 preserveAspectRatio="xMidYMid meet">

<g transform="translate(0.000000,500.000000) scale(0.100000,-0.100000)"
fill="#000000" stroke="none">
<path d="M3859 4236 c-3 -3 -241 -57 -530 -121 -615 -135 -649 -143 -755 -196
-97 -49 -230 -149 -228 -172 1 -9 -2 -14 -7 -12 -17 11 -115 -157 -103 -177 4
-6 3 -8 -4 -4 -11 6 -28 -31 -18 -41 3 -3 -1 -11 -8 -19 -20 -19 -30 -85 -16
-94 9 -6 9 -9 -1 -12 -19 -6 -16 -179 5 -248 9 -30 26 -99 38 -154 12 -54 27
-100 34 -103 10 -3 127 20 254 52 8 2 24 4 35 4 17 1 17 3 5 11 -10 6 -2 8 25
4 32 -4 37 -3 25 6 -12 9 -10 11 11 6 24 -5 127 8 136 18 2 2 -12 64 -31 138
-42 156 -45 209 -15 258 26 41 41 55 94 81 22 10 34 18 26 16 -21 -5 -49 27
-53 60 -3 28 -4 28 -9 -5 -4 -21 -1 -39 7 -47 7 -7 10 -15 7 -19 -9 -9 -33 -8
-32 2 1 4 1 16 -1 27 l-1 20 -9 -20 c-8 -19 -9 -19 -9 2 -1 12 -8 29 -18 38
-13 13 -14 18 -3 25 9 6 7 10 -9 15 -32 10 -25 25 12 22 29 -3 32 -6 29 -32
-2 -27 -1 -28 11 -12 8 9 19 17 26 17 20 0 11 19 -11 23 l-23 4 23 8 c12 4 23
15 23 24 2 30 -3 56 -11 59 -5 2 -6 11 -3 20 4 15 3 15 -6 2 -9 -13 -11 -13
-11 0 0 12 -2 13 -9 1 -6 -9 -10 -10 -14 -2 -4 7 -5 8 -3 1 1 -7 5 -10 10 -8
5 2 14 -13 21 -32 9 -27 9 -37 -1 -47 -16 -16 -31 -16 -37 0 -3 7 -6 5 -6 -6
-1 -15 -4 -16 -23 -6 -22 12 -22 12 -3 20 19 7 18 8 -3 8 -19 1 -22 -3 -17
-19 3 -11 2 -20 -3 -20 -5 0 -9 -13 -10 -30 0 -20 4 -30 14 -30 8 0 14 -4 14
-10 0 -5 7 -10 15 -10 10 0 15 -11 15 -35 0 -34 -1 -35 -40 -35 -31 0 -40 -4
-40 -17 0 -22 -6 -14 -14 19 -6 25 -4 26 32 23 20 -1 27 0 14 2 -16 3 -22 9
-18 20 4 9 -3 23 -16 34 -21 19 -21 20 -2 34 13 10 14 14 4 13 -23 -5 -42 -27
-36 -43 3 -8 1 -17 -4 -20 -5 -3 -10 5 -12 17 -2 13 -9 22 -16 21 -6 -2 -12 2
-12 8 0 6 9 8 20 4 14 -5 20 -2 20 10 0 12 -6 15 -20 10 -21 -7 -25 4 -21 53
1 14 -4 22 -14 22 -8 0 -15 6 -15 14 0 7 -10 17 -22 20 -22 7 -22 7 -3 16 11
5 15 9 8 9 -6 1 -9 10 -6 21 3 11 0 20 -6 20 -6 0 -11 -8 -11 -18 0 -10 -4
-22 -8 -28 -5 -5 -5 -25 -2 -44 7 -35 7 -35 18 -10 6 14 11 20 11 13 1 -6 4
-18 7 -27 4 -12 0 -16 -16 -16 -19 0 -21 -4 -16 -25 4 -14 2 -25 -3 -25 -13 0
-20 37 -9 48 6 6 6 12 -1 16 -6 4 -11 20 -11 37 0 16 -4 29 -10 29 -5 0 -10
-14 -10 -31 0 -19 -4 -28 -11 -23 -6 3 -8 17 -5 30 6 23 -8 35 -16 14 -2 -5
-9 -6 -17 -1 -26 16 -1 29 46 25 49 -5 52 11 4 18 -14 1 -27 9 -29 17 -3 10 0
12 12 8 14 -6 16 -3 11 13 -9 29 23 26 35 -2 l9 -23 0 23 c1 15 8 26 21 29 16
4 18 8 9 19 -9 11 -8 14 5 14 9 0 16 5 16 10 0 6 7 10 15 10 8 0 15 5 15 10 0
6 4 10 10 10 5 0 7 -7 4 -15 -4 -11 -2 -13 9 -9 8 3 17 0 20 -8 2 -7 2 -3 0 9
-2 17 1 21 16 18 13 -2 18 1 15 9 -4 10 2 12 21 8 19 -3 30 1 41 16 9 14 21
18 35 15 17 -5 20 -3 14 7 -6 10 -4 12 9 7 10 -4 23 -4 29 0 16 10 44 14 95
16 23 0 42 5 42 10 0 5 7 4 15 -3 13 -10 15 -9 15 10 0 15 5 20 14 17 8 -3 36
1 63 9 26 8 59 12 71 9 15 -4 21 -2 17 5 -4 6 7 10 28 10 18 0 37 3 40 7 4 4
29 7 55 8 51 2 162 33 162 45 0 8 74 26 98 23 6 0 12 3 12 8 0 4 12 8 28 8 44
-1 126 12 138 22 6 5 13 6 16 3 4 -3 24 4 46 15 23 12 48 18 56 15 18 -7 22
-24 6 -24 -5 0 -10 -6 -10 -14 0 -7 -6 -26 -14 -41 -8 -15 -13 -36 -11 -46 2
-11 0 -17 -6 -14 -5 4 -9 -8 -9 -24 0 -17 -4 -31 -9 -31 -5 0 -13 -15 -16 -32
-4 -18 -17 -44 -29 -57 -11 -13 -16 -21 -9 -17 6 3 14 2 18 -4 3 -5 1 -10 -4
-10 -6 0 -11 -12 -11 -26 0 -14 -4 -22 -10 -19 -10 6 -35 -43 -41 -83 0 -4 -5
-12 -11 -19 -5 -7 -7 -17 -3 -23 4 -6 1 -18 -6 -26 -11 -14 -8 -15 20 -12 39
4 27 -23 146 322 76 220 93 281 74 262z m-1464 -555 c3 -5 1 -12 -5 -16 -5 -3
-10 1 -10 9 0 18 6 21 15 7z m-35 -31 c0 -5 -7 -10 -15 -10 -8 0 -15 5 -15 10
0 6 7 10 15 10 8 0 15 -4 15 -10z m62 -18 c-6 -2 -12 -10 -12 -19 0 -12 -2
-12 -16 1 -20 20 -10 36 18 28 12 -3 17 -7 10 -10z m108 -22 c0 -5 -7 -10 -15
-10 -8 0 -15 5 -15 10 0 6 7 10 15 10 8 0 15 -4 15 -10z m-210 -31 c0 -6 -4
-7 -10 -4 -5 3 -10 11 -10 16 0 6 5 7 10 4 6 -3 10 -11 10 -16z m-10 -27 c0
-1 -8 2 -19 7 -10 6 -21 7 -25 3 -4 -3 -4 1 -1 10 6 15 8 15 26 0 10 -9 19
-18 19 -20z m94 22 c8 -21 8 -24 -5 -24 -5 0 -7 5 -4 10 3 6 1 10 -4 10 -6 0
-11 5 -11 10 0 16 17 12 24 -6z m95 -25 c-17 -11 -39 -12 -39 -1 0 4 12 8 27
9 19 1 22 -1 12 -8z m61 -19 c5 0 10 -10 12 -22 2 -14 9 -22 18 -20 12 3 12 1
3 -9 -16 -16 -44 -4 -37 16 3 8 2 15 -4 15 -14 0 -24 29 -15 43 5 8 9 6 11 -5
2 -10 7 -18 12 -18z m-230 -5 c0 -9 -6 -12 -15 -9 -8 4 -15 10 -15 15 0 5 7 9
15 9 8 0 15 -7 15 -15z m60 -10 c0 -8 6 -15 13 -15 8 -1 7 -5 -4 -13 -9 -7
-14 -18 -11 -26 3 -8 -1 -12 -8 -9 -13 4 -24 38 -12 37 19 -3 22 3 12 21 -7
14 -7 20 0 20 5 0 10 -7 10 -15z m125 5 c3 -5 1 -10 -4 -10 -6 0 -11 5 -11 10
0 6 2 10 4 10 3 0 8 -4 11 -10z m125 -15 c0 -8 -4 -15 -10 -15 -5 0 -10 7 -10
15 0 8 5 15 10 15 6 0 10 -7 10 -15z m-303 -42 c-3 -10 -5 -4 -5 12 0 17 2 24
5 18 2 -7 2 -21 0 -30z m-77 -3 c0 -14 -9 -12 -26 4 -20 21 -17 28 6 16 11 -6
20 -15 20 -20z m253 23 c-18 -7 -16 -23 2 -23 8 0 15 -4 15 -9 0 -5 -9 -7 -20
-4 -29 8 -25 44 4 42 6 0 5 -3 -1 -6z m-183 -70 c0 -6 6 -14 13 -16 9 -4 9 -6
-1 -6 -7 -1 -16 7 -19 17 -4 9 -13 23 -20 30 -7 7 -13 19 -13 25 1 15 39 -34
40 -50z m280 16 c0 -11 -4 -17 -10 -14 -5 3 -10 15 -10 26 0 11 5 17 10 14 6
-3 10 -15 10 -26z m-190 0 c0 -6 -4 -7 -10 -4 -5 3 -10 11 -10 16 0 6 5 7 10
4 6 -3 10 -11 10 -16z m-28 -19 c3 -16 3 -30 1 -30 -7 0 -21 45 -16 53 7 13
11 8 15 -23z m108 17 c0 -7 -9 -13 -20 -14 -25 -2 -27 14 -2 20 9 3 18 5 20 6
1 0 2 -5 2 -12z m84 -29 c8 -5 7 -8 -3 -8 -7 0 -11 -6 -7 -15 3 -8 2 -15 -3
-15 -5 0 -9 19 -8 43 0 23 2 33 5 22 2 -11 9 -23 16 -27z m-34 16 c0 -2 -7 -4
-15 -4 -8 0 -15 4 -15 10 0 5 7 7 15 4 8 -4 15 -8 15 -10z m-290 -23 c0 -4 -7
-8 -15 -8 -16 0 -20 9 -9 20 8 8 24 -1 24 -12z m220 -1 c0 -5 -2 -10 -4 -10
-3 0 -8 5 -11 10 -3 6 -1 10 4 10 6 0 11 -4 11 -10z m-135 -28 c-3 -3 -11 0
-18 7 -9 10 -8 11 6 5 10 -3 15 -9 12 -12z m115 -2 c0 -5 -4 -10 -10 -10 -5 0
-10 5 -10 10 0 6 5 10 10 10 6 0 10 -4 10 -10z m90 6 c0 -11 -19 -15 -25 -6
-3 5 1 10 9 10 9 0 16 -2 16 -4z m-147 -26 c6 -24 -4 -32 -23 -19 -12 7 -12 9
-1 9 7 0 11 6 7 15 -3 8 -2 15 3 15 5 0 11 -9 14 -20z m237 10 c0 -5 -2 -10
-4 -10 -3 0 -8 5 -11 10 -3 6 -1 10 4 10 6 0 11 -4 11 -10z m-30 -4 c0 -3 -4
-8 -10 -11 -5 -3 -10 -1 -10 4 0 6 5 11 10 11 6 0 10 -2 10 -4z m-125 -16 c3
-5 1 -10 -4 -10 -6 0 -11 5 -11 10 0 6 2 10 4 10 3 0 8 -4 11 -10z m87 -14
c-2 -9 2 -16 8 -16 6 0 8 -5 4 -11 -8 -13 -19 -2 -29 30 -5 17 -4 22 6 19 8
-3 13 -12 11 -22z m-132 -11 c0 -8 -2 -15 -4 -15 -2 0 -6 7 -10 15 -3 8 -1 15
4 15 6 0 10 -7 10 -15z m-170 -15 c0 -5 -4 -10 -10 -10 -5 0 -10 5 -10 10 0 6
5 10 10 10 6 0 10 -4 10 -10z m40 0 c0 -5 -4 -10 -10 -10 -5 0 -10 5 -10 10 0
6 5 10 10 10 6 0 10 -4 10 -10z m185 -30 c3 -5 1 -10 -4 -10 -6 0 -11 5 -11
10 0 6 2 10 4 10 3 0 8 -4 11 -10z m50 0 c3 -5 1 -10 -4 -10 -6 0 -11 5 -11
10 0 6 2 10 4 10 3 0 8 -4 11 -10z m55 -10 c0 -5 -2 -10 -4 -10 -3 0 -8 5 -11
10 -3 6 -1 10 4 10 6 0 11 -4 11 -10z m-220 -30 c0 -5 -2 -10 -4 -10 -3 0 -8
5 -11 10 -3 6 -1 10 4 10 6 0 11 -4 11 -10z m192 -32 c-7 -7 -12 -8 -12 -2 0
6 3 14 7 17 3 4 9 5 12 2 2 -3 -1 -11 -7 -17z m38 2 c0 -5 -2 -10 -4 -10 -3 0
-8 5 -11 10 -3 6 -1 10 4 10 6 0 11 -4 11 -10z m-190 -36 c0 -2 -9 -4 -20 -4
-11 0 -20 4 -20 9 0 5 9 7 20 4 11 -3 20 -7 20 -9z m47 -31 c-3 -10 -5 -4 -5
12 0 17 2 24 5 18 2 -7 2 -21 0 -30z m-30 -5 c-3 -8 -6 -5 -6 6 -1 11 2 17 5
13 3 -3 4 -12 1 -19z m83 12 c0 -5 -4 -10 -10 -10 -5 0 -10 5 -10 10 0 6 5 10
10 10 6 0 10 -4 10 -10z m97 -6 c-3 -3 -12 -4 -19 -1 -8 3 -5 6 6 6 11 1 17
-2 13 -5z m-42 -54 c3 -5 1 -10 -4 -10 -6 0 -11 5 -11 10 0 6 2 10 4 10 3 0 8
-4 11 -10z m45 -4 c0 -3 -4 -8 -10 -11 -5 -3 -10 -1 -10 4 0 6 5 11 10 11 6 0
10 -2 10 -4z m-10 -36 c0 -5 -2 -10 -4 -10 -3 0 -8 5 -11 10 -3 6 -1 10 4 10
6 0 11 -4 11 -10z m44 -33 c7 -6 6 -7 -4 -4 -8 2 -16 14 -17 28 -1 19 -1 20 4
4 3 -11 10 -24 17 -28z"/>
<path d="M2713 3887 c3 -21 8 -41 11 -45 4 -3 4 12 0 34 -8 51 -18 61 -11 11z"/>
<path d="M2760 3899 c0 -5 5 -7 10 -4 6 3 10 8 10 11 0 2 -4 4 -10 4 -5 0 -10
-5 -10 -11z"/>
<path d="M2010 3823 c-433 -96 -428 -95 -483 -143 -91 -81 -133 -193 -124
-336 4 -76 11 -103 38 -159 31 -66 134 -185 158 -185 6 0 11 19 11 44 0 56 14
93 48 130 39 41 78 55 262 90 l164 32 13 90 c23 171 98 328 215 446 41 42 61
67 50 67 -9 -1 -168 -35 -352 -76z m14 -99 c10 -4 16 -17 15 -33 -1 -20 -2
-22 -6 -6 -3 11 -12 26 -21 33 -17 13 -13 15 12 6z m48 -16 c-7 -7 -12 -8 -12
-2 0 14 12 26 19 19 2 -3 -1 -11 -7 -17z m-122 8 c0 -3 -4 -8 -10 -11 -5 -3
-10 -1 -10 4 0 6 5 11 10 11 6 0 10 -2 10 -4z m180 -6 c13 -8 13 -10 -2 -10
-9 0 -20 5 -23 10 -8 13 5 13 25 0z m-122 -35 c-3 -3 -9 2 -12 12 -6 14 -5 15
5 6 7 -7 10 -15 7 -18z m107 3 c3 -3 -6 -8 -20 -10 -17 -4 -25 -1 -25 8 0 13
33 15 45 2z m-25 -48 c0 -5 -5 -10 -11 -10 -5 0 -7 5 -4 10 3 6 8 10 11 10 2
0 4 -4 4 -10z m-70 -34 c0 -3 -4 -8 -10 -11 -5 -3 -10 -1 -10 4 0 6 5 11 10
11 6 0 10 -2 10 -4z"/>
<path d="M3225 3890 c3 -5 8 -10 11 -10 2 0 4 5 4 10 0 6 -5 10 -11 10 -5 0
-7 -4 -4 -10z"/>
<path d="M2798 3883 c6 -2 10 -9 7 -13 -3 -5 -1 -11 5 -15 5 -3 10 0 10 9 0 8
6 17 13 19 6 3 -1 5 -18 5 -16 0 -24 -2 -17 -5z"/>
<path d="M3001 3874 c0 -11 3 -14 6 -6 3 7 2 16 -1 19 -3 4 -6 -2 -5 -13z"/>
<path d="M2675 3870 c-3 -5 -1 -10 4 -10 6 0 11 5 11 10 0 6 -2 10 -4 10 -3 0
-8 -4 -11 -10z"/>
<path d="M2760 3860 c0 -5 5 -10 10 -10 6 0 10 5 10 10 0 6 -4 10 -10 10 -5 0
-10 -4 -10 -10z"/>
<path d="M3485 3860 c3 -5 8 -10 11 -10 2 0 4 5 4 10 0 6 -5 10 -11 10 -5 0
-7 -4 -4 -10z"/>
<path d="M2672 3834 c-14 -16 -5 -18 17 -5 7 5 9 11 5 14 -5 3 -15 -1 -22 -9z"/>
<path d="M2841 3830 c2 -50 0 -55 -17 -34 -14 18 -14 18 -3 -5 11 -23 12 -24
25 -7 7 11 20 16 29 13 8 -4 15 -2 15 3 0 6 -7 10 -15 10 -9 0 -20 10 -25 23
-10 22 -10 22 -9 -3z"/>
<path d="M2585 3825 c16 -45 17 -55 6 -55 -7 0 -9 -5 -5 -11 4 -8 9 -7 15 2 4
7 11 10 15 6 4 -4 3 -12 -4 -19 -8 -8 -5 -15 15 -25 14 -7 28 -11 31 -8 3 3 1
5 -5 5 -6 0 -9 10 -6 23 4 18 3 19 -6 7 -9 -13 -11 -11 -11 7 0 12 -5 25 -11
29 -8 4 -7 9 2 15 11 7 10 9 -3 9 -9 0 -22 8 -28 18 -10 15 -11 15 -5 -3z"/>
<path d="M2796 3832 c-2 -4 4 -9 15 -9 11 -1 17 2 14 8 -7 11 -22 12 -29 1z"/>
<path d="M2937 3820 c-3 -11 -1 -23 4 -26 5 -3 9 6 9 20 0 31 -6 34 -13 6z"/>
<path d="M2694 3811 c-12 -11 -25 -17 -28 -14 -9 9 -7 -10 3 -25 6 -10 10 -8
14 8 8 32 30 14 23 -19 -6 -25 -5 -25 6 -5 7 12 19 19 26 17 8 -3 10 1 5 13
-5 14 -2 16 15 12 12 -4 22 -3 22 2 0 4 -9 10 -20 13 -11 3 -20 1 -20 -4 0
-15 -18 -10 -22 7 -3 13 -6 12 -24 -5z"/>
<path d="M3016 3815 c-3 -8 -1 -15 4 -15 6 0 10 7 10 15 0 8 -2 15 -4 15 -2 0
-6 -7 -10 -15z"/>
<path d="M3098 3803 c7 -3 16 -2 19 1 4 3 -2 6 -13 5 -11 0 -14 -3 -6 -6z"/>
<path d="M2520 3784 c0 -8 5 -12 10 -9 6 4 8 11 5 16 -9 14 -15 11 -15 -7z"/>
<path d="M2555 3780 c3 -5 8 -10 11 -10 2 0 4 5 4 10 0 6 -5 10 -11 10 -5 0
-7 -4 -4 -10z"/>
<path d="M3090 3779 c0 -5 5 -7 10 -4 6 3 10 8 10 11 0 2 -4 4 -10 4 -5 0 -10
-5 -10 -11z"/>
<path d="M2890 3775 c0 -5 5 -17 10 -25 5 -8 10 -10 10 -5 0 6 -5 17 -10 25
-5 8 -10 11 -10 5z"/>
<path d="M2765 3760 c-3 -5 -15 -10 -26 -10 -10 0 -19 -4 -19 -10 0 -14 54
-12 68 2 9 9 12 9 12 -2 0 -11 3 -11 12 -2 10 10 10 15 -2 22 -20 13 -37 12
-45 0z"/>
<path d="M2520 3746 c0 -8 5 -18 10 -21 6 -3 10 1 10 9 0 8 -4 18 -10 21 -5 3
-10 -1 -10 -9z"/>
<path d="M2960 3739 c0 -5 5 -7 10 -4 6 3 10 8 10 11 0 2 -4 4 -10 4 -5 0 -10
-5 -10 -11z"/>
<path d="M2570 3731 c0 -5 7 -12 16 -15 14 -5 15 -4 4 9 -14 17 -20 19 -20 6z"/>
<path d="M2930 3725 c-11 -13 -11 -18 0 -28 10 -10 12 -9 7 5 -3 9 -1 19 6 21
7 2 9 7 6 11 -3 4 -12 -1 -19 -9z"/>
<path d="M2830 3720 c-12 -7 -12 -10 3 -16 21 -8 29 -3 19 13 -5 8 -13 9 -22
3z"/>
<path d="M2882 3704 c14 -16 24 -21 27 -13 2 7 -4 18 -15 26 -29 21 -36 15
-12 -13z"/>
<path d="M3040 3716 c7 -7 14 -6 21 1 9 9 7 12 -9 10 -14 -1 -18 -5 -12 -11z"/>
<path d="M3100 3719 c0 -5 -8 -9 -17 -10 -15 0 -15 -2 2 -8 14 -6 22 -4 26 7
4 12 7 13 14 3 6 -11 9 -11 16 0 8 12 11 11 20 -1 9 -13 10 -13 7 0 -5 16 -68
24 -68 9z"/>
<path d="M2545 3700 c-8 -13 -1 -24 14 -19 6 3 7 10 2 18 -6 10 -10 10 -16 1z"/>
<path d="M2610 3700 c0 -5 5 -10 10 -10 6 0 10 5 10 10 0 6 -4 10 -10 10 -5 0
-10 -4 -10 -10z"/>
<path d="M2653 3693 c9 -2 25 -2 35 0 9 3 1 5 -18 5 -19 0 -27 -2 -17 -5z"/>
<path d="M2800 3687 c0 -10 8 -17 18 -17 9 0 13 4 7 8 -5 4 -13 11 -17 16 -5
5 -8 2 -8 -7z"/>
<path d="M2615 3669 c-9 -14 4 -27 13 -13 4 6 14 14 22 17 10 4 8 6 -7 6 -12
1 -25 -4 -28 -10z"/>
<path d="M2715 3660 c10 -11 20 -18 23 -15 7 6 -18 35 -31 35 -5 0 -2 -9 8
-20z"/>
<path d="M2860 3671 c0 -6 4 -11 9 -11 5 0 12 -8 15 -17 3 -11 4 -8 3 6 -2 24
-27 44 -27 22z"/>
<path d="M2985 3670 c3 -5 8 -10 11 -10 2 0 4 5 4 10 0 6 -5 10 -11 10 -5 0
-7 -4 -4 -10z"/>
<path d="M3096 3656 c-6 -25 -2 -30 19 -23 19 8 20 44 1 44 -8 0 -17 -10 -20
-21z"/>
<path d="M2579 3667 c-1 -4 -2 -10 -3 -14 -1 -5 -5 -14 -9 -20 -10 -15 0 -36
13 -28 5 3 7 12 3 20 -3 8 0 15 6 15 6 0 11 -9 11 -19 0 -11 4 -22 9 -25 12
-8 41 3 41 15 0 4 -7 6 -15 3 -8 -4 -15 -1 -15 5 0 13 -39 59 -41 48z"/>
<path d="M1332 3622 c-75 -45 -173 -139 -226 -215 -86 -126 -128 -297 -109
-445 23 -174 81 -297 193 -409 107 -108 186 -153 355 -206 44 -14 132 -44 195
-67 63 -22 171 -61 240 -85 220 -76 323 -125 360 -171 7 -7 18 -14 25 -14 15
0 16 -6 -91 417 l-67 262 -41 15 c-293 103 -560 203 -598 223 -64 35 -150 124
-187 193 -78 147 -82 328 -9 474 16 32 28 60 25 62 -2 2 -31 -13 -65 -34z"/>
<path d="M2645 3650 c3 -5 1 -10 -6 -10 -7 0 -10 -2 -7 -5 3 -3 20 1 39 9 l34
15 -33 1 c-20 0 -31 -4 -27 -10z"/>
<path d="M2817 3643 c-4 -3 -7 -11 -7 -17 0 -6 5 -5 12 2 6 6 9 14 7 17 -3 3
-9 2 -12 -2z"/>
<path d="M2901 3634 c0 -11 3 -14 6 -6 3 7 2 16 -1 19 -3 4 -6 -2 -5 -13z"/>
<path d="M2930 3639 c0 -5 5 -7 10 -4 6 3 10 8 10 11 0 2 -4 4 -10 4 -5 0 -10
-5 -10 -11z"/>
<path d="M2993 3643 c-7 -2 -13 -12 -12 -21 0 -11 2 -12 6 -4 6 16 23 15 23
-2 0 -8 7 -17 16 -20 24 -9 28 -1 9 17 -18 18 -20 31 -3 21 7 -4 8 -3 4 4 -7
12 -22 14 -43 5z"/>
<path d="M3140 3631 c0 -17 38 -37 49 -25 3 3 -5 7 -18 11 -13 3 -20 11 -17
19 3 8 1 14 -4 14 -6 0 -10 -8 -10 -19z"/>
<path d="M3210 3646 c0 -2 9 -6 20 -9 11 -3 18 -1 14 4 -5 9 -34 13 -34 5z"/>
<path d="M2840 3626 c0 -8 5 -18 10 -21 6 -3 10 3 10 14 0 12 -4 21 -10 21 -5
0 -10 -6 -10 -14z"/>
<path d="M3410 3623 c5 -2 8 -9 4 -14 -3 -5 0 -9 6 -9 15 0 7 23 -8 26 -7 1
-8 0 -2 -3z"/>
<path d="M2876 3604 c-4 -9 -4 -19 -1 -22 2 -3 7 3 11 12 4 9 4 19 1 22 -2 3
-7 -3 -11 -12z"/>
<path d="M2930 3590 c0 -22 5 -30 18 -29 10 0 12 3 5 6 -7 2 -13 12 -13 20 0
9 6 13 15 9 22 -8 18 1 -5 14 -18 10 -20 8 -20 -20z"/>
<path d="M3105 3610 c-3 -5 -1 -10 4 -10 6 0 11 5 11 10 0 6 -2 10 -4 10 -3 0
-8 -4 -11 -10z"/>
<path d="M2797 3580 c-3 -11 -1 -20 4 -20 5 0 9 9 9 20 0 11 -2 20 -4 20 -2 0
-6 -9 -9 -20z"/>
<path d="M3205 3591 c-3 -5 -1 -12 4 -15 5 -3 11 1 15 9 6 16 -9 21 -19 6z"/>
<path d="M3240 3583 c0 -7 11 -13 23 -13 13 0 24 6 24 13 0 6 -11 12 -24 12
-12 0 -23 -6 -23 -12z"/>
<path d="M3300 3590 c0 -5 5 -10 10 -10 6 0 10 5 10 10 0 6 -4 10 -10 10 -5 0
-10 -4 -10 -10z"/>
<path d="M2820 3578 c0 -10 5 -18 10 -18 6 0 10 -4 10 -10 0 -5 -9 -10 -20
-10 -11 0 -20 -5 -20 -11 0 -6 7 -8 16 -5 9 3 22 6 30 6 19 0 17 10 -6 40 -16
20 -20 22 -20 8z"/>
<path d="M2896 3575 c-10 -8 -24 -12 -30 -8 -6 3 -8 2 -4 -2 5 -5 18 -9 31
-11 16 -1 23 3 24 17 2 22 3 22 -21 4z"/>
<path d="M2983 3573 c-20 -7 -15 -19 7 -19 11 0 20 4 20 8 0 10 -13 16 -27 11z"/>
<path d="M3113 3555 c0 -8 7 -15 15 -15 12 0 12 3 2 15 -7 8 -13 15 -15 15 -1
0 -2 -7 -2 -15z"/>
<path d="M2924 3539 c-3 -6 -14 -9 -24 -6 -11 3 -21 -1 -24 -9 -3 -8 -17 -14
-31 -14 -15 0 -24 -4 -20 -10 4 -6 11 -7 17 -4 6 4 14 0 19 -7 6 -10 9 -10 9
-2 0 7 7 10 15 7 9 -4 15 0 15 9 0 9 9 19 20 22 11 3 20 11 20 16 0 12 -7 11
-16 -2z"/>
<path d="M3036 3537 c3 -10 9 -15 12 -12 3 3 0 11 -7 18 -10 9 -11 8 -5 -6z"/>
<path d="M2978 3533 c6 -2 18 -2 25 0 6 3 1 5 -13 5 -14 0 -19 -2 -12 -5z"/>
<path d="M2938 3513 c-16 -2 -28 -9 -28 -15 0 -5 7 -7 16 -4 9 3 24 6 35 6 10
0 19 5 19 10 0 6 -3 9 -7 9 -5 -1 -20 -4 -35 -6z"/>
<path d="M2680 3500 c0 -5 5 -10 10 -10 6 0 10 5 10 10 0 6 -4 10 -10 10 -5 0
-10 -4 -10 -10z"/>
<path d="M3410 3048 c-187 -45 -953 -217 -1048 -236 -79 -15 -83 -17 -80 -41
3 -21 14 -30 73 -51 178 -67 361 -186 439 -287 25 -33 47 -51 56 -48 28 8 395
93 460 107 l65 13 63 180 c105 298 132 376 132 386 0 13 -21 10 -160 -23z"/>
<path d="M2305 2633 c4 -10 52 -193 106 -408 54 -214 109 -435 124 -490 50
-192 42 -322 -27 -442 -35 -63 -28 -62 72 2 130 84 226 192 282 315 121 269
49 605 -176 824 -76 73 -144 118 -266 173 -105 48 -126 52 -115 26z"/>
<path d="M31 2014 c0 -11 3 -14 6 -6 3 7 2 16 -1 19 -3 4 -6 -2 -5 -13z"/>
<path d="M41 1974 c-1 -25 39 -157 46 -150 4 4 -11 61 -42 161 -2 6 -4 1 -4
-11z"/>
<path d="M2286 1943 c5 -16 9 -51 9 -79 0 -64 -36 -122 -97 -157 -37 -21 -542
-152 -801 -208 -33 -7 -62 -19 -67 -29 -5 -9 -43 -108 -85 -221 -42 -112 -89
-238 -105 -280 -36 -92 -37 -103 -7 -96 531 130 1103 273 1137 284 66 23 160
122 190 198 47 122 35 315 -27 442 -28 56 -126 173 -145 173 -6 0 -7 -10 -2
-27z"/>
<path d="M91 1790 c0 -8 4 -22 9 -30 12 -18 12 -2 0 25 -6 13 -9 15 -9 5z"/>
<path d="M113 1726 c3 -8 9 -31 13 -50 3 -20 10 -36 15 -36 5 0 9 -6 9 -14 0
-23 33 -92 37 -78 3 7 1 18 -5 25 -5 7 -22 47 -37 90 -15 42 -30 77 -32 77 -3
0 -3 -6 0 -14z"/>
<path d="M208 1488 c15 -62 204 -378 260 -437 8 -8 31 -37 52 -65 98 -131 320
-336 480 -444 63 -42 117 -80 118 -84 2 -5 8 -8 14 -8 6 0 26 -11 44 -25 18
-14 36 -25 40 -25 5 0 42 -17 84 -38 64 -33 111 -54 235 -102 66 -26 86 -32
90 -28 3 2 -48 26 -113 53 -126 52 -218 95 -297 140 -27 16 -59 33 -70 39 -11
6 -22 13 -25 16 -3 3 -30 21 -60 40 -30 19 -80 55 -111 80 -31 25 -76 61 -100
80 -50 40 -242 229 -279 275 -14 17 -52 64 -86 105 -99 122 -148 199 -231 363
-25 48 -46 87 -48 87 -2 0 -1 -10 3 -22z"/>
<path d="M1690 211 c8 -4 29 -11 45 -15 19 -4 25 -3 15 3 -8 4 -28 11 -45 15
-19 4 -25 3 -15 -3z"/>
<path d="M1770 191 c0 -8 34 -21 55 -21 11 1 -35 29 -47 30 -5 0 -8 -4 -8 -9z"/>
<path d="M1860 166 c0 -2 9 -6 20 -9 11 -3 20 -1 20 4 0 5 -9 9 -20 9 -11 0
-20 -2 -20 -4z"/>
<path d="M1990 140 c8 -5 24 -10 34 -10 26 0 18 6 -19 14 -22 5 -26 4 -15 -4z"/>
<path d="M2088 123 c6 -2 18 -2 25 0 6 3 1 5 -13 5 -14 0 -19 -2 -12 -5z"/>
</g>
</svg>
